<svg xmlns="http://www.w3.org/2000/svg" fill="none" viewBox="0 0 48 48" id="Alert-Circle--Streamline-Ionic-Filled" height="48" width="48">
  <desc>
    Alert Circle Streamline Icon: https://streamlinehq.com
  </desc>
  <path fill="#d83c1c" d="M24 0.48C11.0312 0.48 0.48 11.0312 0.48 24S11.0312 47.52 24 47.52 47.52 36.9688 47.52 24 36.9688 0.48 24 0.48Zm0 36.1745c-0.4473 0 -0.8844 -0.1327 -1.2564 -0.3812 -0.3719 -0.2485 -0.6619 -0.6018 -0.833 -1.0149 -0.171 -0.4133 -0.2159 -0.868 -0.1287 -1.3067 0.0873 -0.4387 0.3027 -0.8417 0.619 -1.1579s0.7192 -0.5317 1.1579 -0.6191c0.4387 -0.0872 0.8934 -0.0423 1.3067 0.1287 0.4132 0.1712 0.7665 0.4612 1.0148 0.8331 0.2486 0.3719 0.3813 0.809 0.3813 1.2564 0 0.5997 -0.2383 1.1749 -0.6624 1.5991 -0.4242 0.4241 -0.9995 0.6625 -1.5992 0.6625Zm2.456 -22.7455 -0.649 13.7954c0 0.4797 -0.1907 0.94 -0.5299 1.2793 -0.3394 0.3393 -0.7995 0.5299 -1.2794 0.5299 -0.4798 0 -0.9399 -0.1906 -1.2793 -0.5299 -0.3392 -0.3393 -0.5299 -0.7996 -0.5299 -1.2793l-0.649 -13.7887v-0.0055c-0.0143 -0.3315 0.0388 -0.6623 0.1558 -0.9727 0.1169 -0.3103 0.2956 -0.5938 0.525 -0.8334 0.2296 -0.2396 0.5052 -0.43 0.8102 -0.5603 0.3049 -0.1303 0.6334 -0.1973 0.965 -0.1973 0.3317 0 0.66 0.067 0.965 0.1973s0.5807 0.3207 0.8102 0.5603c0.2294 0.2396 0.4081 0.5231 0.5251 0.8334 0.117 0.3104 0.17 0.6412 0.1558 0.9727l0.0045 -0.0012Z" stroke-width="1"></path>
</svg>